This is the second rip I did of this movie. The First one I did with a one button

converter and came out a little grainy. This one I did using a method I found on 
 
http://www.kingdom-kvcd.net and it came out 50 times better. Brought to you by 

carlito657. Enjoy!!!!


Complete name                    : Sin City - DVDRip(h264+aac)_carlito657.mp4
Format                           : MPEG-4
Format profile                   : Base Media
Codec ID                         : isom
File size                        : 864 MiB
Duration                         : 2h 3mn
Overall bit rate                 : 975 Kbps
Movie name                       : SIN CITY
Album                            : SIN CITY
Encoded date                     : UTC 2006-03-01 19:56:37
Tagged date                      : UTC 2006-03-01 19:56:37
Writing application              : Lavf52.17.0

Video
ID                               : 1
Format                           : AVC
Format/Info                      : Advanced Video Codec
Format profile                   : Baseline@L1.3
Format settings, CABAC           : No
Format settings, ReFrames        : 1 frame
Codec ID                         : avc1
Codec ID/Info                    : Advanced Video Coding
Duration                         : 2h 3mn
Bit rate mode                    : Variable
Bit rate                         : 842 Kbps
Width                            : 704 pixels
Height                           : 384 pixels
Display aspect ratio             : 16:9
Frame rate mode                  : Constant
Frame rate                       : 23.976 fps
Resolution                       : 24 bits
Colorimetry                      : 4:2:0
Scan type                        : Progressive
Bits/(Pixel*Frame)               : 0.130
Stream size                      : 747 MiB (86%)
Encoded date                     : UTC 2006-03-01 19:56:37
Tagged date                      : UTC 2006-03-01 19:56:37

Audio
ID                               : 2
Format                           : AAC
Format/Info                      : Advanced Audio Codec
Format version                   : Version 4
Format profile                   : LC
Format settings, SBR             : No
Codec ID                         : 40
Duration                         : 2h 3mn
Bit rate mode                    : Variable
Bit rate                         : 128 Kbps
Channel(s)                       : 2 channels
Channel positions                : L R
Sampling rate                    : 48.0 KHz
Resolution                       : 16 bits
Stream size                      : 113 MiB (13%)
Encoded date                     : UTC 2006-03-01 19:56:37
